# xmcd
#
# Track frame offsets:
#	150
#	15895
#	29619
#	46422
#	60447
#	69070
#	81212
#	92737
#	103162
#	115197
#	127385
#	140847
#	154795
#	166197
#	177675
#	193572
#	207147
#	220272
#	232684
#	244540
#
# Disc length: 3386 seconds
#
# Revision: 1
# Processed by: cddbd v1.5.2PL0 Copyright (c) Steve Scherf et al.
# Submitted via: EasyCDDAExtractor 15.3.0.1
#
DISCID=0f0d3814
DTITLE=Robin - 20 Suosikkia
DYEAR=1971
DGENRE=Country
TTITLE0=Vuonna 2525
TTITLE1=Aaveratsastajat
TTITLE2=Iltap‰iv‰n Aurinko
TTITLE3=Ei Se Pelaa Joka Pelk‰‰
TTITLE4=Pienet Kirjeet
TTITLE5=Kustaa
TTITLE6=Okay!
TTITLE7=Kauas Jonnekin
TTITLE8=Aika N‰ytt‰‰ Sen
TTITLE9=Heit‰ Huolet Huomiseen
TTITLE10=Prinsessa
TTITLE11=J‰‰hyv‰iset
TTITLE12=Menneet P‰iv‰t
TTITLE13=Mua Onnitelkaa
TTITLE14=K‰ykˆˆn Niin Tai N‰in
TTITLE15=Salainen Asiapoika
TTITLE16=Kaupungin Harmain Mies
TTITLE17=Tiennyt Pienen‰ En
TTITLE18=Kerran Vain Ja Karkuun
TTITLE19=Simo Sanoo Sen
EXTD=
EXTT0=
EXTT1=
EXTT2=
EXTT3=
EXTT4=
EXTT5=
EXTT6=
EXTT7=
EXTT8=
EXTT9=
EXTT10=
EXTT11=
EXTT12=
EXTT13=
EXTT14=
EXTT15=
EXTT16=
EXTT17=
EXTT18=
EXTT19=
PLAYORDER=
